<mxfile host="app.diagrams.net" modified="2022-04-04T21:42:49.662Z" agent="5.0 (Windows NT 10.0; Win64; x64) AppleWebKit/537.36 (KHTML, like Gecko) Chrome/99.0.4844.82 Safari/537.36" etag="dERp7v3xHrUFofbPP1Ti" version="17.4.0" type="github">
  <diagram name="Page-1" id="5f0bae14-7c28-e335-631c-24af17079c00">
    <mxGraphModel dx="1483" dy="793" grid="1" gridSize="10" guides="1" tooltips="1" connect="1" arrows="1" fold="1" page="1" pageScale="1" pageWidth="1700" pageHeight="1100" background="none" math="0" shadow="0">
      <root>
        <mxCell id="0" />
        <mxCell id="1" parent="0" />
        <mxCell id="iABJywx21LI4nu8iP5fn-56" value="AWS ECR" style="verticalAlign=top;align=left;spacingTop=8;spacingLeft=2;spacingRight=12;shape=cube;size=10;direction=south;fontStyle=4;html=1;fontColor=none;strokeColor=default;" vertex="1" parent="1">
          <mxGeometry x="715" y="180" width="155" height="270" as="geometry" />
        </mxCell>
        <mxCell id="iABJywx21LI4nu8iP5fn-27" value="Extraction tool" style="whiteSpace=wrap;html=1;aspect=fixed;fontColor=none;strokeColor=default;" vertex="1" parent="1">
          <mxGeometry x="750" y="240" width="80" height="80" as="geometry" />
        </mxCell>
        <mxCell id="iABJywx21LI4nu8iP5fn-28" value="Sentiment tool" style="whiteSpace=wrap;html=1;aspect=fixed;fontColor=none;strokeColor=default;" vertex="1" parent="1">
          <mxGeometry x="750" y="340" width="80" height="80" as="geometry" />
        </mxCell>
        <mxCell id="iABJywx21LI4nu8iP5fn-29" value="BatchExtractor" style="swimlane;fontStyle=1;align=center;verticalAlign=top;childLayout=stackLayout;horizontal=1;startSize=26;horizontalStack=0;resizeParent=1;resizeParentMax=0;resizeLast=0;collapsible=1;marginBottom=0;strokeColor=#d79b00;fillColor=#ffe6cc;" vertex="1" parent="1">
          <mxGeometry x="370" y="204" width="160" height="216" as="geometry" />
        </mxCell>
        <mxCell id="iABJywx21LI4nu8iP5fn-30" value="ENVIRONMENT: str" style="text;strokeColor=none;fillColor=none;align=left;verticalAlign=top;spacingLeft=4;spacingRight=4;overflow=hidden;rotatable=0;points=[[0,0.5],[1,0.5]];portConstraint=eastwest;fontColor=none;" vertex="1" parent="iABJywx21LI4nu8iP5fn-29">
          <mxGeometry y="26" width="160" height="26" as="geometry" />
        </mxCell>
        <mxCell id="iABJywx21LI4nu8iP5fn-38" value="WARC_DIRECTORY: str" style="text;strokeColor=none;fillColor=none;align=left;verticalAlign=top;spacingLeft=4;spacingRight=4;overflow=hidden;rotatable=0;points=[[0,0.5],[1,0.5]];portConstraint=eastwest;fontColor=none;" vertex="1" parent="iABJywx21LI4nu8iP5fn-29">
          <mxGeometry y="52" width="160" height="26" as="geometry" />
        </mxCell>
        <mxCell id="iABJywx21LI4nu8iP5fn-41" value="VALID_HOSTS: str" style="text;strokeColor=none;fillColor=none;align=left;verticalAlign=top;spacingLeft=4;spacingRight=4;overflow=hidden;rotatable=0;points=[[0,0.5],[1,0.5]];portConstraint=eastwest;fontColor=none;" vertex="1" parent="iABJywx21LI4nu8iP5fn-29">
          <mxGeometry y="78" width="160" height="26" as="geometry" />
        </mxCell>
        <mxCell id="iABJywx21LI4nu8iP5fn-40" value="S3_BUCKET_NAME: str" style="text;strokeColor=none;fillColor=none;align=left;verticalAlign=top;spacingLeft=4;spacingRight=4;overflow=hidden;rotatable=0;points=[[0,0.5],[1,0.5]];portConstraint=eastwest;fontColor=none;" vertex="1" parent="iABJywx21LI4nu8iP5fn-29">
          <mxGeometry y="104" width="160" height="26" as="geometry" />
        </mxCell>
        <mxCell id="iABJywx21LI4nu8iP5fn-39" value="AWS_ACCESS_KEY: str" style="text;strokeColor=none;fillColor=none;align=left;verticalAlign=top;spacingLeft=4;spacingRight=4;overflow=hidden;rotatable=0;points=[[0,0.5],[1,0.5]];portConstraint=eastwest;fontColor=none;" vertex="1" parent="iABJywx21LI4nu8iP5fn-29">
          <mxGeometry y="130" width="160" height="26" as="geometry" />
        </mxCell>
        <mxCell id="iABJywx21LI4nu8iP5fn-31" value="" style="line;strokeWidth=1;fillColor=none;align=left;verticalAlign=middle;spacingTop=-1;spacingLeft=3;spacingRight=3;rotatable=0;labelPosition=right;points=[];portConstraint=eastwest;fontColor=none;" vertex="1" parent="iABJywx21LI4nu8iP5fn-29">
          <mxGeometry y="156" width="160" height="8" as="geometry" />
        </mxCell>
        <mxCell id="iABJywx21LI4nu8iP5fn-32" value="upload_to_bucket" style="text;strokeColor=none;fillColor=none;align=left;verticalAlign=top;spacingLeft=4;spacingRight=4;overflow=hidden;rotatable=0;points=[[0,0.5],[1,0.5]];portConstraint=eastwest;fontColor=none;" vertex="1" parent="iABJywx21LI4nu8iP5fn-29">
          <mxGeometry y="164" width="160" height="26" as="geometry" />
        </mxCell>
        <mxCell id="iABJywx21LI4nu8iP5fn-42" value="article_callback" style="text;strokeColor=none;fillColor=none;align=left;verticalAlign=top;spacingLeft=4;spacingRight=4;overflow=hidden;rotatable=0;points=[[0,0.5],[1,0.5]];portConstraint=eastwest;fontColor=none;" vertex="1" parent="iABJywx21LI4nu8iP5fn-29">
          <mxGeometry y="190" width="160" height="26" as="geometry" />
        </mxCell>
        <mxCell id="iABJywx21LI4nu8iP5fn-10" style="edgeStyle=orthogonalEdgeStyle;rounded=0;orthogonalLoop=1;jettySize=auto;html=1;fontColor=none;entryX=0;entryY=0;entryDx=45;entryDy=130;entryPerimeter=0;" edge="1" parent="1" source="iABJywx21LI4nu8iP5fn-1" target="iABJywx21LI4nu8iP5fn-43">
          <mxGeometry relative="1" as="geometry">
            <mxPoint x="580" y="630" as="targetPoint" />
          </mxGeometry>
        </mxCell>
        <mxCell id="iABJywx21LI4nu8iP5fn-1" value="CC News Archive (S3)" style="shape=cylinder3;whiteSpace=wrap;html=1;boundedLbl=1;backgroundOutline=1;size=15;" vertex="1" parent="1">
          <mxGeometry x="410" y="575" width="60" height="80" as="geometry" />
        </mxCell>
        <mxCell id="iABJywx21LI4nu8iP5fn-4" value="Temporary storage (S3)" style="shape=cylinder3;whiteSpace=wrap;html=1;boundedLbl=1;backgroundOutline=1;size=15;" vertex="1" parent="1">
          <mxGeometry x="750" y="730" width="60" height="80" as="geometry" />
        </mxCell>
        <mxCell id="iABJywx21LI4nu8iP5fn-8" value="MySQL database" style="shape=cylinder3;whiteSpace=wrap;html=1;boundedLbl=1;backgroundOutline=1;size=15;" vertex="1" parent="1">
          <mxGeometry x="1090" y="575" width="60" height="80" as="geometry" />
        </mxCell>
        <mxCell id="iABJywx21LI4nu8iP5fn-11" value="" style="endArrow=classic;html=1;rounded=0;fontColor=none;entryX=0;entryY=0;entryDx=0;entryDy=52.5;entryPerimeter=0;exitX=0;exitY=0;exitDx=80;exitDy=70;exitPerimeter=0;edgeStyle=orthogonalEdgeStyle;" edge="1" parent="1" source="iABJywx21LI4nu8iP5fn-43" target="iABJywx21LI4nu8iP5fn-4">
          <mxGeometry width="50" height="50" relative="1" as="geometry">
            <mxPoint x="650" y="670" as="sourcePoint" />
            <mxPoint x="790" y="690" as="targetPoint" />
          </mxGeometry>
        </mxCell>
        <mxCell id="iABJywx21LI4nu8iP5fn-12" value="" style="endArrow=classic;html=1;rounded=0;fontColor=none;entryX=0;entryY=0;entryDx=80;entryDy=70;entryPerimeter=0;exitX=1;exitY=0;exitDx=0;exitDy=52.5;exitPerimeter=0;edgeStyle=orthogonalEdgeStyle;" edge="1" parent="1" source="iABJywx21LI4nu8iP5fn-4" target="iABJywx21LI4nu8iP5fn-55">
          <mxGeometry width="50" height="50" relative="1" as="geometry">
            <mxPoint x="660" y="680" as="sourcePoint" />
            <mxPoint x="910" y="670" as="targetPoint" />
          </mxGeometry>
        </mxCell>
        <mxCell id="iABJywx21LI4nu8iP5fn-13" value="" style="endArrow=classic;html=1;rounded=0;fontColor=none;entryX=0;entryY=0.5;entryDx=0;entryDy=0;entryPerimeter=0;exitX=0.57;exitY=-0.008;exitDx=0;exitDy=0;exitPerimeter=0;edgeStyle=orthogonalEdgeStyle;" edge="1" parent="1" source="iABJywx21LI4nu8iP5fn-55" target="iABJywx21LI4nu8iP5fn-8">
          <mxGeometry width="50" height="50" relative="1" as="geometry">
            <mxPoint x="960" y="640" as="sourcePoint" />
            <mxPoint x="920" y="680" as="targetPoint" />
          </mxGeometry>
        </mxCell>
        <mxCell id="iABJywx21LI4nu8iP5fn-14" value="Tableau Dashboard" style="whiteSpace=wrap;html=1;aspect=fixed;fontColor=none;" vertex="1" parent="1">
          <mxGeometry x="1250" y="575" width="80" height="80" as="geometry" />
        </mxCell>
        <mxCell id="iABJywx21LI4nu8iP5fn-15" value="" style="endArrow=classic;html=1;rounded=0;fontColor=none;entryX=0;entryY=0.5;entryDx=0;entryDy=0;exitX=1;exitY=0.5;exitDx=0;exitDy=0;exitPerimeter=0;edgeStyle=orthogonalEdgeStyle;" edge="1" parent="1" source="iABJywx21LI4nu8iP5fn-8" target="iABJywx21LI4nu8iP5fn-14">
          <mxGeometry width="50" height="50" relative="1" as="geometry">
            <mxPoint x="970" y="650" as="sourcePoint" />
            <mxPoint x="1090" y="650" as="targetPoint" />
          </mxGeometry>
        </mxCell>
        <mxCell id="iABJywx21LI4nu8iP5fn-43" value="AWS Batch" style="verticalAlign=top;align=left;spacingTop=8;spacingLeft=2;spacingRight=12;shape=cube;size=10;direction=south;fontStyle=4;html=1;fontColor=none;strokeColor=default;" vertex="1" parent="1">
          <mxGeometry x="610" y="570" width="130" height="80" as="geometry" />
        </mxCell>
        <mxCell id="iABJywx21LI4nu8iP5fn-55" value="AWS EMR" style="verticalAlign=top;align=left;spacingTop=8;spacingLeft=2;spacingRight=12;shape=cube;size=10;direction=south;fontStyle=4;html=1;fontColor=none;strokeColor=default;" vertex="1" parent="1">
          <mxGeometry x="840" y="570" width="130" height="80" as="geometry" />
        </mxCell>
        <mxCell id="iABJywx21LI4nu8iP5fn-58" value="" style="endArrow=classic;html=1;rounded=0;fontColor=none;entryX=0;entryY=0;entryDx=0;entryDy=60;entryPerimeter=0;exitX=0;exitY=0.5;exitDx=0;exitDy=0;edgeStyle=orthogonalEdgeStyle;" edge="1" parent="1" source="iABJywx21LI4nu8iP5fn-27" target="iABJywx21LI4nu8iP5fn-43">
          <mxGeometry width="50" height="50" relative="1" as="geometry">
            <mxPoint x="760" y="540" as="sourcePoint" />
            <mxPoint x="810" y="490" as="targetPoint" />
          </mxGeometry>
        </mxCell>
        <mxCell id="iABJywx21LI4nu8iP5fn-59" value="" style="endArrow=classic;html=1;rounded=0;fontColor=none;entryX=0;entryY=0;entryDx=0;entryDy=60;entryPerimeter=0;exitX=1;exitY=0.5;exitDx=0;exitDy=0;edgeStyle=orthogonalEdgeStyle;" edge="1" parent="1" source="iABJywx21LI4nu8iP5fn-28" target="iABJywx21LI4nu8iP5fn-55">
          <mxGeometry width="50" height="50" relative="1" as="geometry">
            <mxPoint x="760" y="290" as="sourcePoint" />
            <mxPoint x="690" y="580" as="targetPoint" />
          </mxGeometry>
        </mxCell>
        <mxCell id="iABJywx21LI4nu8iP5fn-60" value="" style="endArrow=none;dashed=1;html=1;dashPattern=1 3;strokeWidth=2;rounded=0;fontColor=none;entryX=0;entryY=0.25;entryDx=0;entryDy=0;exitX=1.004;exitY=0.08;exitDx=0;exitDy=0;exitPerimeter=0;" edge="1" parent="1" source="iABJywx21LI4nu8iP5fn-29" target="iABJywx21LI4nu8iP5fn-27">
          <mxGeometry width="50" height="50" relative="1" as="geometry">
            <mxPoint x="760" y="540" as="sourcePoint" />
            <mxPoint x="810" y="490" as="targetPoint" />
          </mxGeometry>
        </mxCell>
        <mxCell id="iABJywx21LI4nu8iP5fn-61" value="ArticleExtraction" style="swimlane;fontStyle=1;align=center;verticalAlign=top;childLayout=stackLayout;horizontal=1;startSize=26;horizontalStack=0;resizeParent=1;resizeParentMax=0;resizeLast=0;collapsible=1;marginBottom=0;strokeColor=#d79b00;fillColor=#ffe6cc;" vertex="1" parent="1">
          <mxGeometry x="910" y="40" width="160" height="164" as="geometry" />
        </mxCell>
        <mxCell id="iABJywx21LI4nu8iP5fn-62" value="headlines: list" style="text;strokeColor=none;fillColor=none;align=left;verticalAlign=top;spacingLeft=4;spacingRight=4;overflow=hidden;rotatable=0;points=[[0,0.5],[1,0.5]];portConstraint=eastwest;fontColor=none;" vertex="1" parent="iABJywx21LI4nu8iP5fn-61">
          <mxGeometry y="26" width="160" height="26" as="geometry" />
        </mxCell>
        <mxCell id="iABJywx21LI4nu8iP5fn-67" value="" style="line;strokeWidth=1;fillColor=none;align=left;verticalAlign=middle;spacingTop=-1;spacingLeft=3;spacingRight=3;rotatable=0;labelPosition=right;points=[];portConstraint=eastwest;fontColor=none;" vertex="1" parent="iABJywx21LI4nu8iP5fn-61">
          <mxGeometry y="52" width="160" height="8" as="geometry" />
        </mxCell>
        <mxCell id="iABJywx21LI4nu8iP5fn-68" value="import_one_article" style="text;strokeColor=none;fillColor=none;align=left;verticalAlign=top;spacingLeft=4;spacingRight=4;overflow=hidden;rotatable=0;points=[[0,0.5],[1,0.5]];portConstraint=eastwest;fontColor=none;" vertex="1" parent="iABJywx21LI4nu8iP5fn-61">
          <mxGeometry y="60" width="160" height="26" as="geometry" />
        </mxCell>
        <mxCell id="iABJywx21LI4nu8iP5fn-69" value="import_one_headline_json" style="text;strokeColor=none;fillColor=none;align=left;verticalAlign=top;spacingLeft=4;spacingRight=4;overflow=hidden;rotatable=0;points=[[0,0.5],[1,0.5]];portConstraint=eastwest;fontColor=none;" vertex="1" parent="iABJywx21LI4nu8iP5fn-61">
          <mxGeometry y="86" width="160" height="26" as="geometry" />
        </mxCell>
        <mxCell id="iABJywx21LI4nu8iP5fn-71" value="article_to_sentences" style="text;strokeColor=none;fillColor=none;align=left;verticalAlign=top;spacingLeft=4;spacingRight=4;overflow=hidden;rotatable=0;points=[[0,0.5],[1,0.5]];portConstraint=eastwest;fontColor=none;" vertex="1" parent="iABJywx21LI4nu8iP5fn-61">
          <mxGeometry y="112" width="160" height="26" as="geometry" />
        </mxCell>
        <mxCell id="iABJywx21LI4nu8iP5fn-70" value="import_folder_headlines" style="text;strokeColor=none;fillColor=none;align=left;verticalAlign=top;spacingLeft=4;spacingRight=4;overflow=hidden;rotatable=0;points=[[0,0.5],[1,0.5]];portConstraint=eastwest;fontColor=none;" vertex="1" parent="iABJywx21LI4nu8iP5fn-61">
          <mxGeometry y="138" width="160" height="26" as="geometry" />
        </mxCell>
        <mxCell id="iABJywx21LI4nu8iP5fn-72" value="BrandIdentification" style="swimlane;fontStyle=1;align=center;verticalAlign=top;childLayout=stackLayout;horizontal=1;startSize=26;horizontalStack=0;resizeParent=1;resizeParentMax=0;resizeLast=0;collapsible=1;marginBottom=0;strokeColor=#d79b00;fillColor=#ffe6cc;" vertex="1" parent="1">
          <mxGeometry x="1100" y="102" width="160" height="138" as="geometry" />
        </mxCell>
        <mxCell id="iABJywx21LI4nu8iP5fn-73" value="model_name: str" style="text;strokeColor=none;fillColor=none;align=left;verticalAlign=top;spacingLeft=4;spacingRight=4;overflow=hidden;rotatable=0;points=[[0,0.5],[1,0.5]];portConstraint=eastwest;fontColor=none;" vertex="1" parent="iABJywx21LI4nu8iP5fn-72">
          <mxGeometry y="26" width="160" height="26" as="geometry" />
        </mxCell>
        <mxCell id="iABJywx21LI4nu8iP5fn-74" value="" style="line;strokeWidth=1;fillColor=none;align=left;verticalAlign=middle;spacingTop=-1;spacingLeft=3;spacingRight=3;rotatable=0;labelPosition=right;points=[];portConstraint=eastwest;fontColor=none;" vertex="1" parent="iABJywx21LI4nu8iP5fn-72">
          <mxGeometry y="52" width="160" height="8" as="geometry" />
        </mxCell>
        <mxCell id="iABJywx21LI4nu8iP5fn-75" value="create_ranked_result" style="text;strokeColor=none;fillColor=none;align=left;verticalAlign=top;spacingLeft=4;spacingRight=4;overflow=hidden;rotatable=0;points=[[0,0.5],[1,0.5]];portConstraint=eastwest;fontColor=none;" vertex="1" parent="iABJywx21LI4nu8iP5fn-72">
          <mxGeometry y="60" width="160" height="26" as="geometry" />
        </mxCell>
        <mxCell id="iABJywx21LI4nu8iP5fn-76" value="predict_by_headline" style="text;strokeColor=none;fillColor=none;align=left;verticalAlign=top;spacingLeft=4;spacingRight=4;overflow=hidden;rotatable=0;points=[[0,0.5],[1,0.5]];portConstraint=eastwest;fontColor=none;" vertex="1" parent="iABJywx21LI4nu8iP5fn-72">
          <mxGeometry y="86" width="160" height="26" as="geometry" />
        </mxCell>
        <mxCell id="iABJywx21LI4nu8iP5fn-77" value="predict" style="text;strokeColor=none;fillColor=none;align=left;verticalAlign=top;spacingLeft=4;spacingRight=4;overflow=hidden;rotatable=0;points=[[0,0.5],[1,0.5]];portConstraint=eastwest;fontColor=none;" vertex="1" parent="iABJywx21LI4nu8iP5fn-72">
          <mxGeometry y="112" width="160" height="26" as="geometry" />
        </mxCell>
        <mxCell id="iABJywx21LI4nu8iP5fn-79" value="BrandIdentification" style="swimlane;fontStyle=1;align=center;verticalAlign=top;childLayout=stackLayout;horizontal=1;startSize=26;horizontalStack=0;resizeParent=1;resizeParentMax=0;resizeLast=0;collapsible=1;marginBottom=0;strokeColor=#d79b00;fillColor=#ffe6cc;" vertex="1" parent="1">
          <mxGeometry x="1100" y="260" width="160" height="164" as="geometry" />
        </mxCell>
        <mxCell id="iABJywx21LI4nu8iP5fn-80" value="model_name: str" style="text;strokeColor=none;fillColor=none;align=left;verticalAlign=top;spacingLeft=4;spacingRight=4;overflow=hidden;rotatable=0;points=[[0,0.5],[1,0.5]];portConstraint=eastwest;fontColor=none;" vertex="1" parent="iABJywx21LI4nu8iP5fn-79">
          <mxGeometry y="26" width="160" height="26" as="geometry" />
        </mxCell>
        <mxCell id="iABJywx21LI4nu8iP5fn-85" value="pipeline_model: Pipeline" style="text;strokeColor=none;fillColor=none;align=left;verticalAlign=top;spacingLeft=4;spacingRight=4;overflow=hidden;rotatable=0;points=[[0,0.5],[1,0.5]];portConstraint=eastwest;fontColor=none;" vertex="1" parent="iABJywx21LI4nu8iP5fn-79">
          <mxGeometry y="52" width="160" height="26" as="geometry" />
        </mxCell>
        <mxCell id="iABJywx21LI4nu8iP5fn-81" value="" style="line;strokeWidth=1;fillColor=none;align=left;verticalAlign=middle;spacingTop=-1;spacingLeft=3;spacingRight=3;rotatable=0;labelPosition=right;points=[];portConstraint=eastwest;fontColor=none;" vertex="1" parent="iABJywx21LI4nu8iP5fn-79">
          <mxGeometry y="78" width="160" height="8" as="geometry" />
        </mxCell>
        <mxCell id="iABJywx21LI4nu8iP5fn-82" value="predict_dataframe" style="text;strokeColor=none;fillColor=none;align=left;verticalAlign=top;spacingLeft=4;spacingRight=4;overflow=hidden;rotatable=0;points=[[0,0.5],[1,0.5]];portConstraint=eastwest;fontColor=none;" vertex="1" parent="iABJywx21LI4nu8iP5fn-79">
          <mxGeometry y="86" width="160" height="26" as="geometry" />
        </mxCell>
        <mxCell id="iABJywx21LI4nu8iP5fn-83" value="predict_string_list" style="text;strokeColor=none;fillColor=none;align=left;verticalAlign=top;spacingLeft=4;spacingRight=4;overflow=hidden;rotatable=0;points=[[0,0.5],[1,0.5]];portConstraint=eastwest;fontColor=none;" vertex="1" parent="iABJywx21LI4nu8iP5fn-79">
          <mxGeometry y="112" width="160" height="26" as="geometry" />
        </mxCell>
        <mxCell id="iABJywx21LI4nu8iP5fn-84" value="compute_accuracy" style="text;strokeColor=none;fillColor=none;align=left;verticalAlign=top;spacingLeft=4;spacingRight=4;overflow=hidden;rotatable=0;points=[[0,0.5],[1,0.5]];portConstraint=eastwest;fontColor=none;" vertex="1" parent="iABJywx21LI4nu8iP5fn-79">
          <mxGeometry y="138" width="160" height="26" as="geometry" />
        </mxCell>
        <mxCell id="iABJywx21LI4nu8iP5fn-86" value="" style="endArrow=none;dashed=1;html=1;dashPattern=1 3;strokeWidth=2;rounded=0;fontColor=none;entryX=1;entryY=0.25;entryDx=0;entryDy=0;exitX=0.329;exitY=1.137;exitDx=0;exitDy=0;exitPerimeter=0;" edge="1" parent="1" source="iABJywx21LI4nu8iP5fn-70" target="iABJywx21LI4nu8iP5fn-28">
          <mxGeometry width="50" height="50" relative="1" as="geometry">
            <mxPoint x="540.6400000000001" y="231.2800000000001" as="sourcePoint" />
            <mxPoint x="760" y="270" as="targetPoint" />
          </mxGeometry>
        </mxCell>
        <mxCell id="iABJywx21LI4nu8iP5fn-87" value="" style="endArrow=none;dashed=1;html=1;dashPattern=1 3;strokeWidth=2;rounded=0;fontColor=none;entryX=1;entryY=0.25;entryDx=0;entryDy=0;exitX=0;exitY=0.5;exitDx=0;exitDy=0;" edge="1" parent="1" source="iABJywx21LI4nu8iP5fn-77" target="iABJywx21LI4nu8iP5fn-28">
          <mxGeometry width="50" height="50" relative="1" as="geometry">
            <mxPoint x="972.6399999999999" y="217.562" as="sourcePoint" />
            <mxPoint x="840" y="370" as="targetPoint" />
          </mxGeometry>
        </mxCell>
        <mxCell id="iABJywx21LI4nu8iP5fn-89" value="" style="endArrow=none;dashed=1;html=1;dashPattern=1 3;strokeWidth=2;rounded=0;fontColor=none;entryX=1;entryY=0.25;entryDx=0;entryDy=0;exitX=0.006;exitY=0.091;exitDx=0;exitDy=0;exitPerimeter=0;" edge="1" parent="1" source="iABJywx21LI4nu8iP5fn-79" target="iABJywx21LI4nu8iP5fn-28">
          <mxGeometry width="50" height="50" relative="1" as="geometry">
            <mxPoint x="1110" y="237.0000000000001" as="sourcePoint" />
            <mxPoint x="840" y="370" as="targetPoint" />
          </mxGeometry>
        </mxCell>
        <mxCell id="iABJywx21LI4nu8iP5fn-90" value="&lt;p style=&quot;margin: 0px ; margin-top: 6px ; text-align: center&quot;&gt;&lt;b&gt;article: json&lt;/b&gt;&lt;/p&gt;&lt;hr&gt;&lt;p style=&quot;margin: 0px ; margin-left: 8px&quot;&gt;+ authors: str&lt;br&gt;+ d&lt;span&gt;ate_download: str,&amp;nbsp;&lt;/span&gt;&lt;/p&gt;&lt;p style=&quot;margin: 0px ; margin-left: 8px&quot;&gt;&lt;span&gt;+ date_modify: str,&amp;nbsp;&lt;/span&gt;&lt;/p&gt;&lt;p style=&quot;margin: 0px ; margin-left: 8px&quot;&gt;&lt;span&gt;+ date_publish: str&lt;/span&gt;&lt;/p&gt;&lt;p style=&quot;margin: 0px ; margin-left: 8px&quot;&gt;&lt;span&gt;+ description: str&lt;/span&gt;&lt;/p&gt;&lt;p style=&quot;margin: 0px ; margin-left: 8px&quot;&gt;&lt;span&gt;+ filename: str&lt;/span&gt;&lt;/p&gt;&lt;p style=&quot;margin: 0px ; margin-left: 8px&quot;&gt;&lt;span&gt;+ image_url: str&lt;/span&gt;&lt;/p&gt;&lt;p style=&quot;margin: 0px ; margin-left: 8px&quot;&gt;&lt;span&gt;+ language: str&lt;/span&gt;&lt;/p&gt;&lt;p style=&quot;margin: 0px ; margin-left: 8px&quot;&gt;&lt;span&gt;+ localpath: str,&amp;nbsp;&lt;/span&gt;&lt;/p&gt;&lt;p style=&quot;margin: 0px ; margin-left: 8px&quot;&gt;&lt;span&gt;+ source_domain: str&amp;nbsp;&lt;/span&gt;&lt;/p&gt;&lt;p style=&quot;margin: 0px ; margin-left: 8px&quot;&gt;&lt;span&gt;+ maintext: str&lt;/span&gt;&lt;/p&gt;&lt;p style=&quot;margin: 0px ; margin-left: 8px&quot;&gt;&lt;span&gt;+ title: str&lt;/span&gt;&lt;/p&gt;&lt;p style=&quot;margin: 0px ; margin-left: 8px&quot;&gt;&lt;span&gt;+ title_page: str&lt;/span&gt;&lt;/p&gt;&lt;p style=&quot;margin: 0px ; margin-left: 8px&quot;&gt;&lt;span&gt;+ title_rss: str&lt;/span&gt;&lt;/p&gt;&lt;p style=&quot;margin: 0px ; margin-left: 8px&quot;&gt;&lt;span&gt;+ url: str&lt;/span&gt;&lt;/p&gt;" style="align=left;overflow=fill;html=1;dropTarget=0;strokeColor=#6c8ebf;fillColor=#dae8fc;" vertex="1" parent="1">
          <mxGeometry x="675" y="890" width="210" height="260" as="geometry" />
        </mxCell>
        <mxCell id="iABJywx21LI4nu8iP5fn-91" value="" style="shape=component;jettyWidth=8;jettyHeight=4;fontColor=none;strokeColor=default;" vertex="1" parent="iABJywx21LI4nu8iP5fn-90">
          <mxGeometry x="1" width="20" height="20" relative="1" as="geometry">
            <mxPoint x="-24" y="4" as="offset" />
          </mxGeometry>
        </mxCell>
        <mxCell id="iABJywx21LI4nu8iP5fn-92" value="" style="endArrow=none;dashed=1;html=1;dashPattern=1 3;strokeWidth=2;rounded=0;fontColor=none;entryX=0.5;entryY=1;entryDx=0;entryDy=0;exitX=0.5;exitY=0;exitDx=0;exitDy=0;entryPerimeter=0;" edge="1" parent="1" source="iABJywx21LI4nu8iP5fn-90" target="iABJywx21LI4nu8iP5fn-4">
          <mxGeometry width="50" height="50" relative="1" as="geometry">
            <mxPoint x="540.6400000000001" y="231.2800000000001" as="sourcePoint" />
            <mxPoint x="760" y="270" as="targetPoint" />
          </mxGeometry>
        </mxCell>
      </root>
    </mxGraphModel>
  </diagram>
</mxfile>
